<svg width="179" height="223" viewBox="0 0 179 223" fill="none" xmlns="http://www.w3.org/2000/svg">
<path d="M172.109 84.4727L178.248 72.05L164.42 72.9456L172.109 84.4727ZM0.764062 216.425C0.764062 219.96 3.62944 222.825 7.16406 222.825C10.6987 222.825 13.5641 219.96 13.5641 216.425C13.5641 212.89 10.6987 210.025 7.16406 210.025C3.62944 210.025 0.764062 212.89 0.764062 216.425ZM172.601 73.5362C167.242 32.4923 132.142 0.8 89.6368 0.8V3.2C130.921 3.2 165.017 33.9827 170.221 73.8469L172.601 73.5362ZM89.6368 0.8C43.4257 0.8 5.96406 38.2616 5.96406 84.4727H8.36406C8.36406 39.5871 44.7511 3.2 89.6368 3.2V0.8ZM5.96406 84.4727V216.425H8.36406V84.4727H5.96406Z" fill="#5384EA"/>
<path d="M48.2 73.82C48.2 65.7467 49.5533 59.4467 52.26 54.92C55.0133 50.3467 59.7267 48.06 66.4 48.06C73.0733 48.06 77.7633 50.3467 80.47 54.92C83.2233 59.4467 84.6 65.7467 84.6 73.82C84.6 81.9867 83.2233 88.38 80.47 93C77.7633 97.5733 73.0733 99.86 66.4 99.86C59.7267 99.86 55.0133 97.5733 52.26 93C49.5533 88.38 48.2 81.9867 48.2 73.82ZM76.76 73.82C76.76 70.04 76.5033 66.8433 75.99 64.23C75.5233 61.6167 74.5433 59.4933 73.05 57.86C71.5567 56.18 69.34 55.34 66.4 55.34C63.46 55.34 61.2433 56.18 59.75 57.86C58.2567 59.4933 57.2533 61.6167 56.74 64.23C56.2733 66.8433 56.04 70.04 56.04 73.82C56.04 77.74 56.2733 81.03 56.74 83.69C57.2067 86.35 58.1867 88.4967 59.68 90.13C61.22 91.7633 63.46 92.58 66.4 92.58C69.34 92.58 71.5567 91.7633 73.05 90.13C74.59 88.4967 75.5933 86.35 76.06 83.69C76.5267 81.03 76.76 77.74 76.76 73.82ZM97.4538 89.15C101.934 85.2767 105.457 82.1033 108.024 79.63C110.637 77.11 112.807 74.4967 114.534 71.79C116.26 69.0833 117.124 66.3767 117.124 63.67C117.124 60.87 116.447 58.6767 115.094 57.09C113.787 55.5033 111.71 54.71 108.864 54.71C106.11 54.71 103.964 55.5967 102.424 57.37C100.93 59.0967 100.137 61.43 100.044 64.37H92.3438C92.4838 59.05 94.0704 54.99 97.1038 52.19C100.184 49.3433 104.08 47.92 108.794 47.92C113.88 47.92 117.847 49.32 120.694 52.12C123.587 54.92 125.034 58.6533 125.034 63.32C125.034 66.68 124.17 69.9233 122.444 73.05C120.764 76.13 118.734 78.9067 116.354 81.38C114.02 83.8067 111.034 86.63 107.394 89.85L104.244 92.65H126.434V99.3H92.4138V93.49L97.4538 89.15Z" fill="#5384EA"/>
</svg>
