<svg width="29" height="30" viewBox="0 0 29 30" fill="none" xmlns="http://www.w3.org/2000/svg">
<g opacity="0.2">
<path fill-rule="evenodd" clip-rule="evenodd" d="M11.7265 12.861C11.7234 12.6639 11.7591 12.4681 11.8316 12.2848C11.9042 12.1015 12.0122 11.9343 12.1494 11.7927C12.2867 11.6512 12.4505 11.5381 12.6315 11.4599C12.8124 11.3817 13.0071 11.34 13.2042 11.3371L18.4102 11.2575C18.8018 11.2609 19.1765 11.4173 19.4543 11.6933C19.7321 11.9693 19.891 12.3429 19.897 12.7345C19.903 13.126 19.7557 13.5044 19.4864 13.7887C19.2172 14.0731 18.8475 14.2409 18.4562 14.2563L13.2495 14.3366C12.8519 14.3426 12.4682 14.1905 12.1827 13.9136C11.8972 13.6368 11.7327 13.2586 11.7265 12.861Z" fill="#B6B6B6"/>
<path fill-rule="evenodd" clip-rule="evenodd" d="M19.7408 19.3352C19.3507 19.4128 18.9459 19.3323 18.6151 19.1115C18.2844 18.8906 18.0549 18.5475 17.9771 18.1575L16.9602 13.0505C16.9164 12.8553 16.9121 12.6534 16.9475 12.4565C16.983 12.2597 17.0574 12.0719 17.1665 11.9043C17.2755 11.7366 17.417 11.5924 17.5826 11.4803C17.7482 11.3681 17.9346 11.2902 18.1307 11.2511C18.3269 11.212 18.5289 11.2126 18.7248 11.2527C18.9208 11.2929 19.1067 11.3718 19.2717 11.4848C19.4367 11.5979 19.5774 11.7428 19.6856 11.9111C19.7937 12.0793 19.8672 12.2675 19.9015 12.4645L20.9191 17.5707C20.9576 17.764 20.9577 17.9629 20.9193 18.1561C20.8809 18.3494 20.8049 18.5332 20.6954 18.6971C20.586 18.8609 20.4454 19.0016 20.2816 19.1111C20.1178 19.2206 19.934 19.2967 19.7408 19.3352Z" fill="#B6B6B6"/>
<path fill-rule="evenodd" clip-rule="evenodd" d="M18.1241 13.149C18.4336 13.399 18.6311 13.7617 18.6732 14.1573C18.7153 14.5529 18.5985 14.949 18.3486 15.2585L13.3219 21.482C13.0719 21.7915 12.7093 21.989 12.3137 22.0311C11.9181 22.0732 11.522 21.9564 11.2125 21.7064C10.903 21.4565 10.7055 21.0938 10.6634 20.6982C10.6213 20.3026 10.7381 19.9065 10.9881 19.597L16.0147 13.3735C16.2647 13.064 16.6274 12.8665 17.0229 12.8244C17.4185 12.7823 17.8146 12.8991 18.1241 13.149Z" fill="#B6B6B6"/>
</g>
<path fill-rule="evenodd" clip-rule="evenodd" d="M11.4956 11.1999C11.4936 11.0674 11.5443 10.9395 11.6366 10.8443C11.7289 10.7492 11.8552 10.6945 11.9877 10.6925L17.1937 10.6129C17.2603 10.6103 17.3268 10.621 17.3892 10.6445C17.4516 10.6679 17.5087 10.7036 17.5571 10.7494C17.6056 10.7953 17.6443 10.8503 17.6711 10.9114C17.698 10.9724 17.7123 11.0382 17.7133 11.1048C17.7143 11.1715 17.702 11.2377 17.6771 11.2995C17.6521 11.3614 17.6151 11.4176 17.5681 11.4649C17.5211 11.5122 17.4651 11.5496 17.4035 11.575C17.3418 11.6003 17.2757 11.6131 17.209 11.6125L12.003 11.6921C11.8705 11.6941 11.7426 11.6433 11.6474 11.551C11.5523 11.4588 11.4976 11.3325 11.4956 11.1999Z" fill="#0068CF"/>
<path fill-rule="evenodd" clip-rule="evenodd" d="M18.3137 16.7095C18.1837 16.7354 18.0487 16.7086 17.9385 16.635C17.8282 16.5614 17.7518 16.447 17.7258 16.317L16.7083 11.2108C16.6937 11.1457 16.6922 11.0784 16.704 11.0128C16.7159 10.9472 16.7407 10.8846 16.777 10.8287C16.8134 10.7728 16.8605 10.7247 16.9157 10.6874C16.9709 10.65 17.0331 10.624 17.0985 10.611C17.1638 10.5979 17.2312 10.5981 17.2965 10.6115C17.3618 10.6249 17.4238 10.6512 17.4788 10.6889C17.5338 10.7266 17.5807 10.7749 17.6167 10.8309C17.6528 10.887 17.6773 10.9498 17.6887 11.0154L18.7063 16.1217C18.7321 16.2517 18.7053 16.3866 18.6317 16.4969C18.5581 16.6071 18.4437 16.6836 18.3137 16.7095Z" fill="#0068CF"/>
<path fill-rule="evenodd" clip-rule="evenodd" d="M17.1978 11.1108C17.301 11.1941 17.3668 11.315 17.3808 11.4469C17.3949 11.5787 17.3559 11.7108 17.2726 11.8139L11.3035 19.2044C11.2201 19.3076 11.0992 19.3734 10.9674 19.3874C10.8355 19.4015 10.7035 19.3625 10.6003 19.2792C10.4972 19.1959 10.4313 19.075 10.4173 18.9431C10.4033 18.8113 10.4422 18.6792 10.5255 18.5761L16.4947 11.1856C16.578 11.0824 16.6989 11.0166 16.8307 11.0026C16.9626 10.9885 17.0946 11.0275 17.1978 11.1108Z" fill="#0068CF"/>
</svg>
