<svg width="80" height="80" viewBox="0 0 80 80" fill="none" xmlns="http://www.w3.org/2000/svg">
<circle cx="40" cy="40" r="39.5" fill="#5384EA" fill-opacity="0.06" stroke="#5384EA"/>
<path d="M56.804 47.1786C56.804 47.3307 56.804 47.4444 56.804 47.5581C56.804 50.4829 56.8054 53.409 56.804 56.3338C56.804 57.2708 56.1208 57.9831 55.221 57.9968C54.3032 58.0119 53.5672 57.3037 53.5617 56.3776C53.5533 54.9145 53.5589 53.4528 53.5589 51.9898C53.5589 50.4911 53.5547 48.9938 53.563 47.4951C53.563 47.2595 53.5103 47.1677 53.2478 47.1718C52.5299 47.1855 52.5299 47.1731 52.5299 47.8759C52.5299 50.6678 52.5272 53.4583 52.5313 56.2502C52.5327 56.9762 52.2592 57.5338 51.5774 57.8516C50.5734 58.3201 49.389 57.6311 49.3098 56.5379C49.2987 56.3776 49.2987 56.2173 49.2987 56.057C49.2987 53.2295 49.2987 50.4034 49.2987 47.5759C49.2987 47.312 49.1645 47.1795 48.896 47.1786C48.4892 47.1786 48.0823 47.1814 47.6754 47.1786C47.2367 47.1745 47.0464 46.9457 47.1395 46.5211C47.2922 45.8252 47.4505 45.1306 47.613 44.4361C48.0073 42.7442 48.4045 41.0537 48.8002 39.3619C49.1612 37.818 49.5223 36.2741 49.8833 34.7288C49.9541 34.4275 49.8403 34.1946 49.5917 34.1316C49.3209 34.0617 49.1001 34.2001 49.0043 34.5056C48.4961 36.1303 47.9907 37.7536 47.4838 39.3783C47.3616 39.7701 47.2408 40.1619 47.1075 40.5496C46.9145 41.1113 46.3938 41.462 45.8217 41.4277C45.2732 41.3948 44.8066 41.0017 44.7039 40.4291C44.665 40.2112 44.6997 39.9647 44.7622 39.7482C45.4287 37.4742 46.08 35.196 46.7895 32.9356C47.3561 31.1301 48.9668 29.9478 50.8484 29.967C52.2953 29.9807 53.7408 29.9629 55.1877 29.9711C57.2664 29.9835 58.7744 31.152 59.3701 33.1247C59.995 35.1974 60.6754 37.2536 61.3225 39.3194C61.546 40.0332 61.7571 40.7524 61.9543 41.4729C62.1431 42.162 61.7446 42.8538 61.0642 43.0607C60.3866 43.2662 59.6506 42.9168 59.4298 42.236C59.0091 40.94 58.6119 39.6359 58.2148 38.3317C57.8288 37.0618 57.4552 35.7878 57.0748 34.5165C56.9776 34.1918 56.779 34.0521 56.5096 34.1192C56.2444 34.185 56.1194 34.4069 56.193 34.733C56.3694 35.5234 56.5554 36.3138 56.7401 37.1029C57.0817 38.5509 57.4275 39.9975 57.7677 41.4455C58.112 42.9113 58.4509 44.3785 58.7897 45.8443C58.8452 46.0868 58.898 46.332 58.9438 46.5772C59.0105 46.9389 58.8244 47.1704 58.4536 47.1759C57.9218 47.1827 57.3886 47.1773 56.8026 47.1773L56.804 47.1786Z" fill="#5384EA"/>
<path d="M29.5354 45.7358C29.5354 49.2756 29.5368 52.8155 29.534 56.3554C29.534 57.2307 28.9397 57.8979 28.0996 57.9897C27.247 58.0828 26.4583 57.4787 26.3431 56.6362C26.3195 56.4608 26.3195 56.28 26.3195 56.1019C26.3195 52.2853 26.3195 48.4688 26.3195 44.6522C26.3195 44.2316 26.3195 44.2289 25.9085 44.2302C25.1697 44.2344 25.2933 44.1659 25.2933 44.8426C25.2891 48.6496 25.2905 52.4579 25.2933 56.2649C25.2933 56.9211 25.0531 57.454 24.4643 57.7855C23.4229 58.3705 22.1315 57.6691 22.0593 56.4869C22.051 56.354 22.0551 56.2197 22.0551 56.0855C22.0551 49.1304 22.0551 42.1754 22.0551 35.2189C22.0551 35.0669 22.0843 34.9039 22.0371 34.7682C21.9899 34.6354 21.876 34.4532 21.7663 34.4326C21.6497 34.4107 21.4608 34.5258 21.3775 34.6354C21.2872 34.7532 21.2553 34.9313 21.2414 35.0874C21.1553 36.019 21.0817 36.9519 21.004 37.8848C20.8873 39.2794 20.7818 40.6753 20.6471 42.0685C20.5763 42.8001 19.9167 43.3165 19.196 43.2535C18.4879 43.1918 17.9532 42.5836 18.0032 41.8452C18.0907 40.5822 18.2032 39.3218 18.3087 38.0601C18.4101 36.8519 18.5392 35.6464 18.6128 34.4367C18.7489 32.1805 20.6457 30.2968 22.9327 30.2489C24.8295 30.2092 26.7291 30.2092 28.6273 30.2462C30.5963 30.2845 31.8946 31.3339 32.5917 33.0901C32.8944 33.8545 33.0374 34.6819 33.218 35.4888C33.4846 36.6793 33.722 37.8766 33.9706 39.0711C34.0247 39.3328 34.0817 39.5945 34.1303 39.8575C34.2622 40.5739 33.8428 41.2274 33.136 41.4151C32.4751 41.5904 31.7475 41.1959 31.5517 40.4931C31.367 39.8342 31.2545 39.1547 31.1101 38.4848C30.8504 37.2752 30.5921 36.0642 30.3311 34.8545C30.3144 34.7778 30.2908 34.6819 30.2353 34.6381C30.1186 34.5436 29.9673 34.4025 29.8506 34.4189C29.7396 34.434 29.6243 34.6134 29.5674 34.7436C29.5174 34.8587 29.5396 35.0066 29.5396 35.1395C29.5396 38.6711 29.5396 42.2014 29.5396 45.733L29.5354 45.7358Z" fill="#5384EA"/>
<path d="M36.4595 51.6649C36.4595 49.9703 36.4567 48.2757 36.4637 46.5811C36.4637 46.3633 36.4081 46.2551 36.1762 46.1838C34.6293 45.703 33.599 44.6564 32.9394 43.2289C32.7131 42.7399 32.9033 42.1631 33.3518 41.8577C33.7879 41.5604 34.3738 41.6001 34.7765 41.9673C34.8876 42.0686 34.9904 42.1892 35.0626 42.3207C35.7305 43.5317 36.8025 44.1495 38.1522 44.2454C39.0936 44.3125 40.0545 44.3071 40.9918 44.203C42.1735 44.0728 43.1066 43.4659 43.7037 42.4193C43.987 41.922 44.3703 41.5933 44.9896 41.6755C45.7658 41.7768 46.2282 42.5837 45.8935 43.2837C45.2284 44.6742 44.2147 45.7044 42.6915 46.166C42.4471 46.24 42.3957 46.3578 42.3957 46.5839C42.4012 49.9196 42.3957 53.254 42.4026 56.5897C42.4026 57.1034 42.243 57.5213 41.7958 57.7966C40.9321 58.3281 39.8379 57.7487 39.8254 56.7377C39.806 55.1143 39.8185 53.491 39.8185 51.869C39.8185 51.7799 39.8185 51.6909 39.8185 51.6019C39.8185 51.1128 39.6796 51.0018 39.1881 51.1265C39.1256 51.1429 39.0534 51.2607 39.0492 51.3347C39.0339 51.6457 39.0423 51.958 39.0423 52.2704C39.0423 53.7417 39.045 55.2129 39.0409 56.6842C39.0395 57.3665 38.609 57.8706 37.9508 57.9815C37.3343 58.0857 36.7261 57.7158 36.5261 57.0884C36.4664 56.8979 36.465 56.6842 36.4637 56.4801C36.4595 54.8746 36.4609 53.269 36.4609 51.6649H36.4595Z" fill="#5384EA"/>
<path d="M56.6404 25.7073C56.6377 27.6882 54.9991 29.2951 52.9954 29.2828C51.0028 29.2705 49.3851 27.6595 49.3906 25.6923C49.3962 23.7141 51.007 22.1277 53.0093 22.125C55.0269 22.1223 56.6432 23.7182 56.6404 25.7073Z" fill="#5384EA"/>
<path d="M25.7938 29.1537C23.8054 29.1537 22.1627 27.5331 22.1641 25.5768C22.1655 23.6165 23.8026 22.0041 25.7938 22C27.7989 21.9973 29.4361 23.6138 29.4305 25.5919C29.425 27.5619 27.7976 29.1551 25.7938 29.1537Z" fill="#5384EA"/>
<path d="M42.3864 40.6164C42.3808 42.2453 41.0519 43.5467 39.3981 43.5453C37.754 43.5453 36.4141 42.222 36.4141 40.6041C36.4141 38.9849 37.7582 37.6602 39.3981 37.6602C41.0658 37.6602 42.3905 38.9712 42.385 40.6164H42.3864Z" fill="#5384EA"/>
</svg>
