<svg width="176" height="107" viewBox="0 0 176 107" fill="none" xmlns="http://www.w3.org/2000/svg">
<path d="M38.8365 66.352V69.616H42.6765V71.104H38.8365V74.512H43.1565V76H37.0125V64.864H43.1565V66.352H38.8365ZM49.1791 71.536L52.0271 76H49.9631L48.0591 73.008L46.2671 76H44.3631L47.2111 71.664L44.3631 67.184H46.4271L48.3311 70.176L50.1231 67.184H52.0271L49.1791 71.536ZM55.2115 68.48C55.5208 68.0747 55.9422 67.7333 56.4755 67.456C57.0088 67.1787 57.6115 67.04 58.2835 67.04C59.0515 67.04 59.7502 67.232 60.3795 67.616C61.0195 67.9893 61.5208 68.5173 61.8835 69.2C62.2462 69.8827 62.4275 70.6667 62.4275 71.552C62.4275 72.4373 62.2462 73.232 61.8835 73.936C61.5208 74.6293 61.0195 75.1733 60.3795 75.568C59.7502 75.952 59.0515 76.144 58.2835 76.144C57.6115 76.144 57.0142 76.0107 56.4915 75.744C55.9688 75.4667 55.5422 75.1253 55.2115 74.72V80.192H53.3875V67.184H55.2115V68.48ZM60.5715 71.552C60.5715 70.944 60.4435 70.4213 60.1875 69.984C59.9422 69.536 59.6115 69.2 59.1955 68.976C58.7902 68.7413 58.3528 68.624 57.8835 68.624C57.4248 68.624 56.9875 68.7413 56.5715 68.976C56.1662 69.2107 55.8355 69.552 55.5795 70C55.3342 70.448 55.2115 70.976 55.2115 71.584C55.2115 72.192 55.3342 72.7253 55.5795 73.184C55.8355 73.632 56.1662 73.9733 56.5715 74.208C56.9875 74.4427 57.4248 74.56 57.8835 74.56C58.3528 74.56 58.7902 74.4427 59.1955 74.208C59.6115 73.9627 59.9422 73.6107 60.1875 73.152C60.4435 72.6933 60.5715 72.16 60.5715 71.552ZM66.0553 64.16V76H64.2313V64.16H66.0553ZM72.274 76.144C71.442 76.144 70.69 75.9573 70.018 75.584C69.346 75.2 68.818 74.6667 68.434 73.984C68.05 73.2907 67.858 72.4907 67.858 71.584C67.858 70.688 68.0553 69.8933 68.45 69.2C68.8447 68.5067 69.3833 67.9733 70.066 67.6C70.7487 67.2267 71.5113 67.04 72.354 67.04C73.1967 67.04 73.9593 67.2267 74.642 67.6C75.3247 67.9733 75.8633 68.5067 76.258 69.2C76.6527 69.8933 76.85 70.688 76.85 71.584C76.85 72.48 76.6473 73.2747 76.242 73.968C75.8367 74.6613 75.282 75.2 74.578 75.584C73.8847 75.9573 73.1167 76.144 72.274 76.144ZM72.274 74.56C72.7433 74.56 73.1807 74.448 73.586 74.224C74.002 74 74.338 73.664 74.594 73.216C74.85 72.768 74.978 72.224 74.978 71.584C74.978 70.944 74.8553 70.4053 74.61 69.968C74.3647 69.52 74.0393 69.184 73.634 68.96C73.2287 68.736 72.7913 68.624 72.322 68.624C71.8527 68.624 71.4153 68.736 71.01 68.96C70.6153 69.184 70.3007 69.52 70.066 69.968C69.8313 70.4053 69.714 70.944 69.714 71.584C69.714 72.5333 69.954 73.2693 70.434 73.792C70.9247 74.304 71.538 74.56 72.274 74.56ZM80.4771 68.464C80.7438 68.016 81.0958 67.6693 81.5331 67.424C81.9811 67.168 82.5091 67.04 83.1171 67.04V68.928H82.6531C81.9385 68.928 81.3945 69.1093 81.0211 69.472C80.6585 69.8347 80.4771 70.464 80.4771 71.36V76H78.6531V67.184H80.4771V68.464ZM92.8738 71.376C92.8738 71.7067 92.8524 72.0053 92.8098 72.272H86.0738C86.1271 72.976 86.3884 73.5413 86.8578 73.968C87.3271 74.3947 87.9031 74.608 88.5858 74.608C89.5671 74.608 90.2604 74.1973 90.6658 73.376H92.6337C92.3671 74.1867 91.8818 74.8533 91.1778 75.376C90.4844 75.888 89.6204 76.144 88.5858 76.144C87.7431 76.144 86.9858 75.9573 86.3138 75.584C85.6524 75.2 85.1298 74.6667 84.7458 73.984C84.3724 73.2907 84.1858 72.4907 84.1858 71.584C84.1858 70.6773 84.3671 69.8827 84.7298 69.2C85.1031 68.5067 85.6204 67.9733 86.2818 67.6C86.9538 67.2267 87.7218 67.04 88.5858 67.04C89.4178 67.04 90.1591 67.2213 90.8098 67.584C91.4604 67.9467 91.9671 68.4587 92.3298 69.12C92.6924 69.7707 92.8738 70.5227 92.8738 71.376ZM90.9698 70.8C90.9591 70.128 90.7191 69.5893 90.2498 69.184C89.7804 68.7787 89.1991 68.576 88.5058 68.576C87.8764 68.576 87.3378 68.7787 86.8898 69.184C86.4418 69.5787 86.1751 70.1173 86.0898 70.8H90.9698ZM102.649 76.144C101.817 76.144 101.065 75.9573 100.393 75.584C99.721 75.2 99.193 74.6667 98.809 73.984C98.425 73.2907 98.233 72.4907 98.233 71.584C98.233 70.688 98.4303 69.8933 98.825 69.2C99.2197 68.5067 99.7583 67.9733 100.441 67.6C101.124 67.2267 101.886 67.04 102.729 67.04C103.572 67.04 104.334 67.2267 105.017 67.6C105.7 67.9733 106.238 68.5067 106.633 69.2C107.028 69.8933 107.225 70.688 107.225 71.584C107.225 72.48 107.022 73.2747 106.617 73.968C106.212 74.6613 105.657 75.2 104.953 75.584C104.26 75.9573 103.492 76.144 102.649 76.144ZM102.649 74.56C103.118 74.56 103.556 74.448 103.961 74.224C104.377 74 104.713 73.664 104.969 73.216C105.225 72.768 105.353 72.224 105.353 71.584C105.353 70.944 105.23 70.4053 104.985 69.968C104.74 69.52 104.414 69.184 104.009 68.96C103.604 68.736 103.166 68.624 102.697 68.624C102.228 68.624 101.79 68.736 101.385 68.96C100.99 69.184 100.676 69.52 100.441 69.968C100.206 70.4053 100.089 70.944 100.089 71.584C100.089 72.5333 100.329 73.2693 100.809 73.792C101.3 74.304 101.913 74.56 102.649 74.56ZM111.156 68.672V73.552C111.156 73.8827 111.231 74.1227 111.38 74.272C111.54 74.4107 111.807 74.48 112.18 74.48H113.3V76H111.86C111.039 76 110.409 75.808 109.972 75.424C109.535 75.04 109.316 74.416 109.316 73.552V68.672H108.276V67.184H109.316V64.992H111.156V67.184H113.3V68.672H111.156ZM119.541 67.04C120.213 67.04 120.811 67.184 121.333 67.472C121.867 67.76 122.283 68.1867 122.581 68.752C122.891 69.3173 123.045 70 123.045 70.8V76H121.237V71.072C121.237 70.2827 121.04 69.68 120.645 69.264C120.251 68.8373 119.712 68.624 119.029 68.624C118.347 68.624 117.803 68.8373 117.397 69.264C117.003 69.68 116.805 70.2827 116.805 71.072V76H114.981V64.16H116.805V68.208C117.115 67.8347 117.504 67.5467 117.973 67.344C118.453 67.1413 118.976 67.04 119.541 67.04ZM133.452 71.376C133.452 71.7067 133.431 72.0053 133.388 72.272H126.652C126.705 72.976 126.967 73.5413 127.436 73.968C127.905 74.3947 128.481 74.608 129.164 74.608C130.145 74.608 130.839 74.1973 131.244 73.376H133.212C132.945 74.1867 132.46 74.8533 131.756 75.376C131.063 75.888 130.199 76.144 129.164 76.144C128.321 76.144 127.564 75.9573 126.892 75.584C126.231 75.2 125.708 74.6667 125.324 73.984C124.951 73.2907 124.764 72.4907 124.764 71.584C124.764 70.6773 124.945 69.8827 125.308 69.2C125.681 68.5067 126.199 67.9733 126.86 67.6C127.532 67.2267 128.3 67.04 129.164 67.04C129.996 67.04 130.737 67.2213 131.388 67.584C132.039 67.9467 132.545 68.4587 132.908 69.12C133.271 69.7707 133.452 70.5227 133.452 71.376ZM131.548 70.8C131.537 70.128 131.297 69.5893 130.828 69.184C130.359 68.7787 129.777 68.576 129.084 68.576C128.455 68.576 127.916 68.7787 127.468 69.184C127.02 69.5787 126.753 70.1173 126.668 70.8H131.548ZM137.071 68.464C137.338 68.016 137.69 67.6693 138.127 67.424C138.575 67.168 139.103 67.04 139.711 67.04V68.928H139.247C138.532 68.928 137.988 69.1093 137.615 69.472C137.252 69.8347 137.071 70.464 137.071 71.36V76H135.247V67.184H137.071V68.464ZM3.18025 90.88V102H1.35625V90.88H3.18025ZM10.023 93.04C10.7163 93.04 11.335 93.184 11.879 93.472C12.4337 93.76 12.8657 94.1867 13.175 94.752C13.4843 95.3173 13.639 96 13.639 96.8V102H11.831V97.072C11.831 96.2827 11.6337 95.68 11.239 95.264C10.8443 94.8373 10.3057 94.624 9.623 94.624C8.94033 94.624 8.39633 94.8373 7.991 95.264C7.59633 95.68 7.399 96.2827 7.399 97.072V102H5.575V93.184H7.399V94.192C7.69767 93.8293 8.07633 93.5467 8.535 93.344C9.00433 93.1413 9.50033 93.04 10.023 93.04ZM19.1656 102.144C18.4723 102.144 17.8483 102.021 17.2936 101.776C16.7496 101.52 16.3176 101.179 15.9976 100.752C15.6776 100.315 15.507 99.8293 15.4856 99.296H17.3736C17.4056 99.6693 17.5816 99.984 17.9016 100.24C18.2323 100.485 18.643 100.608 19.1336 100.608C19.6456 100.608 20.0403 100.512 20.3176 100.32C20.6056 100.117 20.7496 99.8613 20.7496 99.552C20.7496 99.2213 20.5896 98.976 20.2696 98.816C19.9603 98.656 19.4643 98.48 18.7816 98.288C18.1203 98.1067 17.5816 97.9307 17.1656 97.76C16.7496 97.5893 16.387 97.328 16.0776 96.976C15.779 96.624 15.6296 96.16 15.6296 95.584C15.6296 95.1147 15.7683 94.688 16.0456 94.304C16.323 93.9093 16.7176 93.6 17.2296 93.376C17.7523 93.152 18.3496 93.04 19.0216 93.04C20.0243 93.04 20.8296 93.296 21.4376 93.808C22.0563 94.3093 22.387 94.9973 22.4296 95.872H20.6056C20.5736 95.4773 20.4136 95.1627 20.1256 94.928C19.8376 94.6933 19.4483 94.576 18.9576 94.576C18.4776 94.576 18.1096 94.6667 17.8536 94.848C17.5976 95.0293 17.4696 95.2693 17.4696 95.568C17.4696 95.8027 17.555 96 17.7256 96.16C17.8963 96.32 18.1043 96.448 18.3496 96.544C18.595 96.6293 18.9576 96.7413 19.4376 96.88C20.0776 97.0507 20.6003 97.2267 21.0056 97.408C21.4216 97.5787 21.779 97.8347 22.0776 98.176C22.3763 98.5173 22.531 98.9707 22.5416 99.536C22.5416 100.037 22.403 100.485 22.1256 100.88C21.8483 101.275 21.4536 101.584 20.9416 101.808C20.4403 102.032 19.8483 102.144 19.1656 102.144ZM32.4965 93.184V102H30.6725V100.96C30.3845 101.323 30.0058 101.611 29.5365 101.824C29.0778 102.027 28.5872 102.128 28.0645 102.128C27.3712 102.128 26.7472 101.984 26.1925 101.696C25.6485 101.408 25.2165 100.981 24.8965 100.416C24.5872 99.8507 24.4325 99.168 24.4325 98.368V93.184H26.2405V98.096C26.2405 98.8853 26.4378 99.4933 26.8325 99.92C27.2272 100.336 27.7658 100.544 28.4485 100.544C29.1312 100.544 29.6698 100.336 30.0645 99.92C30.4698 99.4933 30.6725 98.8853 30.6725 98.096V93.184H32.4965ZM36.7271 94.464C36.9938 94.016 37.3458 93.6693 37.7831 93.424C38.2311 93.168 38.7591 93.04 39.3671 93.04V94.928H38.9031C38.1885 94.928 37.6445 95.1093 37.2711 95.472C36.9085 95.8347 36.7271 96.464 36.7271 97.36V102H34.9031V93.184H36.7271V94.464ZM40.4358 97.552C40.4358 96.6667 40.6171 95.8827 40.9798 95.2C41.3531 94.5173 41.8544 93.9893 42.4838 93.616C43.1238 93.232 43.8278 93.04 44.5958 93.04C45.2891 93.04 45.8918 93.1787 46.4038 93.456C46.9264 93.7227 47.3424 94.0587 47.6518 94.464V93.184H49.4918V102H47.6518V100.688C47.3424 101.104 46.9211 101.451 46.3878 101.728C45.8544 102.005 45.2464 102.144 44.5638 102.144C43.8064 102.144 43.1131 101.952 42.4838 101.568C41.8544 101.173 41.3531 100.629 40.9798 99.936C40.6171 99.232 40.4358 98.4373 40.4358 97.552ZM47.6518 97.584C47.6518 96.976 47.5238 96.448 47.2678 96C47.0224 95.552 46.6971 95.2107 46.2918 94.976C45.8864 94.7413 45.4491 94.624 44.9798 94.624C44.5104 94.624 44.0731 94.7413 43.6678 94.976C43.2624 95.2 42.9318 95.536 42.6758 95.984C42.4304 96.4213 42.3078 96.944 42.3078 97.552C42.3078 98.16 42.4304 98.6933 42.6758 99.152C42.9318 99.6107 43.2624 99.9627 43.6678 100.208C44.0838 100.443 44.5211 100.56 44.9798 100.56C45.4491 100.56 45.8864 100.443 46.2918 100.208C46.6971 99.9733 47.0224 99.632 47.2678 99.184C47.5238 98.7253 47.6518 98.192 47.6518 97.584ZM56.3355 93.04C57.0288 93.04 57.6475 93.184 58.1915 93.472C58.7462 93.76 59.1782 94.1867 59.4875 94.752C59.7968 95.3173 59.9515 96 59.9515 96.8V102H58.1435V97.072C58.1435 96.2827 57.9462 95.68 57.5515 95.264C57.1568 94.8373 56.6182 94.624 55.9355 94.624C55.2528 94.624 54.7088 94.8373 54.3035 95.264C53.9088 95.68 53.7115 96.2827 53.7115 97.072V102H51.8875V93.184H53.7115V94.192C54.0102 93.8293 54.3888 93.5467 54.8475 93.344C55.3168 93.1413 55.8128 93.04 56.3355 93.04ZM61.6701 97.584C61.6701 96.6773 61.8515 95.8827 62.2141 95.2C62.5875 94.5067 63.0995 93.9733 63.7501 93.6C64.4008 93.2267 65.1475 93.04 65.9901 93.04C67.0568 93.04 67.9368 93.296 68.6301 93.808C69.3341 94.3093 69.8088 95.0293 70.0541 95.968H68.0861C67.9261 95.5307 67.6701 95.1893 67.3181 94.944C66.9661 94.6987 66.5235 94.576 65.9901 94.576C65.2435 94.576 64.6461 94.8427 64.1981 95.376C63.7608 95.8987 63.5421 96.6347 63.5421 97.584C63.5421 98.5333 63.7608 99.2747 64.1981 99.808C64.6461 100.341 65.2435 100.608 65.9901 100.608C67.0461 100.608 67.7448 100.144 68.0861 99.216H70.0541C69.7981 100.112 69.3181 100.827 68.6141 101.36C67.9101 101.883 67.0355 102.144 65.9901 102.144C65.1475 102.144 64.4008 101.957 63.7501 101.584C63.0995 101.2 62.5875 100.667 62.2141 99.984C61.8515 99.2907 61.6701 98.4907 61.6701 97.584ZM79.9519 97.376C79.9519 97.7067 79.9305 98.0053 79.8879 98.272H73.1519C73.2052 98.976 73.4665 99.5413 73.9359 99.968C74.4052 100.395 74.9812 100.608 75.6639 100.608C76.6452 100.608 77.3385 100.197 77.7439 99.376H79.7119C79.4452 100.187 78.9599 100.853 78.2559 101.376C77.5625 101.888 76.6985 102.144 75.6639 102.144C74.8212 102.144 74.0639 101.957 73.3919 101.584C72.7305 101.2 72.2079 100.667 71.8239 99.984C71.4505 99.2907 71.2639 98.4907 71.2639 97.584C71.2639 96.6773 71.4452 95.8827 71.8079 95.2C72.1812 94.5067 72.6985 93.9733 73.3599 93.6C74.0319 93.2267 74.7999 93.04 75.6639 93.04C76.4959 93.04 77.2372 93.2213 77.8879 93.584C78.5385 93.9467 79.0452 94.4587 79.4079 95.12C79.7705 95.7707 79.9519 96.5227 79.9519 97.376ZM78.0479 96.8C78.0372 96.128 77.7972 95.5893 77.3279 95.184C76.8585 94.7787 76.2772 94.576 75.5839 94.576C74.9545 94.576 74.4159 94.7787 73.9679 95.184C73.5199 95.5787 73.2532 96.1173 73.1679 96.8H78.0479ZM85.2951 97.584C85.2951 96.6773 85.4765 95.8827 85.8391 95.2C86.2125 94.5067 86.7245 93.9733 87.3751 93.6C88.0258 93.2267 88.7725 93.04 89.6151 93.04C90.6818 93.04 91.5618 93.296 92.2551 93.808C92.9591 94.3093 93.4338 95.0293 93.6791 95.968H91.7111C91.5511 95.5307 91.2951 95.1893 90.9431 94.944C90.5911 94.6987 90.1485 94.576 89.6151 94.576C88.8685 94.576 88.2711 94.8427 87.8231 95.376C87.3858 95.8987 87.1671 96.6347 87.1671 97.584C87.1671 98.5333 87.3858 99.2747 87.8231 99.808C88.2711 100.341 88.8685 100.608 89.6151 100.608C90.6711 100.608 91.3698 100.144 91.7111 99.216H93.6791C93.4231 100.112 92.9431 100.827 92.2391 101.36C91.5351 101.883 90.6605 102.144 89.6151 102.144C88.7725 102.144 88.0258 101.957 87.3751 101.584C86.7245 101.2 86.2125 100.667 85.8391 99.984C85.4765 99.2907 85.2951 98.4907 85.2951 97.584ZM99.3209 102.144C98.4889 102.144 97.7369 101.957 97.0649 101.584C96.3929 101.2 95.8649 100.667 95.4809 99.984C95.0969 99.2907 94.9049 98.4907 94.9049 97.584C94.9049 96.688 95.1022 95.8933 95.4969 95.2C95.8915 94.5067 96.4302 93.9733 97.1129 93.6C97.7955 93.2267 98.5582 93.04 99.4009 93.04C100.244 93.04 101.006 93.2267 101.689 93.6C102.372 93.9733 102.91 94.5067 103.305 95.2C103.7 95.8933 103.897 96.688 103.897 97.584C103.897 98.48 103.694 99.2747 103.289 99.968C102.884 100.661 102.329 101.2 101.625 101.584C100.932 101.957 100.164 102.144 99.3209 102.144ZM99.3209 100.56C99.7902 100.56 100.228 100.448 100.633 100.224C101.049 100 101.385 99.664 101.641 99.216C101.897 98.768 102.025 98.224 102.025 97.584C102.025 96.944 101.902 96.4053 101.657 95.968C101.412 95.52 101.086 95.184 100.681 94.96C100.276 94.736 99.8382 94.624 99.3689 94.624C98.8995 94.624 98.4622 94.736 98.0569 94.96C97.6622 95.184 97.3475 95.52 97.1129 95.968C96.8782 96.4053 96.7609 96.944 96.7609 97.584C96.7609 98.5333 97.0009 99.2693 97.4809 99.792C97.9715 100.304 98.5849 100.56 99.3209 100.56ZM116.372 93.04C117.065 93.04 117.684 93.184 118.228 93.472C118.783 93.76 119.215 94.1867 119.524 94.752C119.844 95.3173 120.004 96 120.004 96.8V102H118.196V97.072C118.196 96.2827 117.999 95.68 117.604 95.264C117.209 94.8373 116.671 94.624 115.988 94.624C115.305 94.624 114.761 94.8373 114.356 95.264C113.961 95.68 113.764 96.2827 113.764 97.072V102H111.956V97.072C111.956 96.2827 111.759 95.68 111.364 95.264C110.969 94.8373 110.431 94.624 109.748 94.624C109.065 94.624 108.521 94.8373 108.116 95.264C107.721 95.68 107.524 96.2827 107.524 97.072V102H105.7V93.184H107.524V94.192C107.823 93.8293 108.201 93.5467 108.66 93.344C109.119 93.1413 109.609 93.04 110.132 93.04C110.836 93.04 111.465 93.1893 112.02 93.488C112.575 93.7867 113.001 94.2187 113.3 94.784C113.567 94.2507 113.983 93.8293 114.548 93.52C115.113 93.2 115.721 93.04 116.372 93.04ZM124.149 94.48C124.458 94.0747 124.88 93.7333 125.413 93.456C125.946 93.1787 126.549 93.04 127.221 93.04C127.989 93.04 128.688 93.232 129.317 93.616C129.957 93.9893 130.458 94.5173 130.821 95.2C131.184 95.8827 131.365 96.6667 131.365 97.552C131.365 98.4373 131.184 99.232 130.821 99.936C130.458 100.629 129.957 101.173 129.317 101.568C128.688 101.952 127.989 102.144 127.221 102.144C126.549 102.144 125.952 102.011 125.429 101.744C124.906 101.467 124.48 101.125 124.149 100.72V106.192H122.325V93.184H124.149V94.48ZM129.509 97.552C129.509 96.944 129.381 96.4213 129.125 95.984C128.88 95.536 128.549 95.2 128.133 94.976C127.728 94.7413 127.29 94.624 126.821 94.624C126.362 94.624 125.925 94.7413 125.509 94.976C125.104 95.2107 124.773 95.552 124.517 96C124.272 96.448 124.149 96.976 124.149 97.584C124.149 98.192 124.272 98.7253 124.517 99.184C124.773 99.632 125.104 99.9733 125.509 100.208C125.925 100.443 126.362 100.56 126.821 100.56C127.29 100.56 127.728 100.443 128.133 100.208C128.549 99.9627 128.88 99.6107 129.125 99.152C129.381 98.6933 129.509 98.16 129.509 97.552ZM132.561 97.552C132.561 96.6667 132.742 95.8827 133.105 95.2C133.478 94.5173 133.979 93.9893 134.609 93.616C135.249 93.232 135.953 93.04 136.721 93.04C137.414 93.04 138.017 93.1787 138.529 93.456C139.051 93.7227 139.467 94.0587 139.777 94.464V93.184H141.617V102H139.777V100.688C139.467 101.104 139.046 101.451 138.513 101.728C137.979 102.005 137.371 102.144 136.689 102.144C135.931 102.144 135.238 101.952 134.609 101.568C133.979 101.173 133.478 100.629 133.105 99.936C132.742 99.232 132.561 98.4373 132.561 97.552ZM139.777 97.584C139.777 96.976 139.649 96.448 139.393 96C139.147 95.552 138.822 95.2107 138.417 94.976C138.011 94.7413 137.574 94.624 137.105 94.624C136.635 94.624 136.198 94.7413 135.793 94.976C135.387 95.2 135.057 95.536 134.801 95.984C134.555 96.4213 134.433 96.944 134.433 97.552C134.433 98.16 134.555 98.6933 134.801 99.152C135.057 99.6107 135.387 99.9627 135.793 100.208C136.209 100.443 136.646 100.56 137.105 100.56C137.574 100.56 138.011 100.443 138.417 100.208C138.822 99.9733 139.147 99.632 139.393 99.184C139.649 98.7253 139.777 98.192 139.777 97.584ZM148.461 93.04C149.154 93.04 149.773 93.184 150.317 93.472C150.871 93.76 151.303 94.1867 151.613 94.752C151.922 95.3173 152.077 96 152.077 96.8V102H150.269V97.072C150.269 96.2827 150.071 95.68 149.677 95.264C149.282 94.8373 148.743 94.624 148.061 94.624C147.378 94.624 146.834 94.8373 146.429 95.264C146.034 95.68 145.837 96.2827 145.837 97.072V102H144.013V93.184H145.837V94.192C146.135 93.8293 146.514 93.5467 146.973 93.344C147.442 93.1413 147.938 93.04 148.461 93.04ZM155.331 92.016C155 92.016 154.723 91.904 154.499 91.68C154.275 91.456 154.163 91.1787 154.163 90.848C154.163 90.5173 154.275 90.24 154.499 90.016C154.723 89.792 155 89.68 155.331 89.68C155.651 89.68 155.923 89.792 156.147 90.016C156.371 90.24 156.483 90.5173 156.483 90.848C156.483 91.1787 156.371 91.456 156.147 91.68C155.923 91.904 155.651 92.016 155.331 92.016ZM156.227 93.184V102H154.403V93.184H156.227ZM166.702 97.376C166.702 97.7067 166.681 98.0053 166.638 98.272H159.902C159.955 98.976 160.217 99.5413 160.686 99.968C161.155 100.395 161.731 100.608 162.414 100.608C163.395 100.608 164.089 100.197 164.494 99.376H166.462C166.195 100.187 165.71 100.853 165.006 101.376C164.313 101.888 163.449 102.144 162.414 102.144C161.571 102.144 160.814 101.957 160.142 101.584C159.481 101.2 158.958 100.667 158.574 99.984C158.201 99.2907 158.014 98.4907 158.014 97.584C158.014 96.6773 158.195 95.8827 158.558 95.2C158.931 94.5067 159.449 93.9733 160.11 93.6C160.782 93.2267 161.55 93.04 162.414 93.04C163.246 93.04 163.987 93.2213 164.638 93.584C165.289 93.9467 165.795 94.4587 166.158 95.12C166.521 95.7707 166.702 96.5227 166.702 97.376ZM164.798 96.8C164.787 96.128 164.547 95.5893 164.078 95.184C163.609 94.7787 163.027 94.576 162.334 94.576C161.705 94.576 161.166 94.7787 160.718 95.184C160.27 95.5787 160.003 96.1173 159.918 96.8H164.798ZM171.697 102.144C171.004 102.144 170.38 102.021 169.825 101.776C169.281 101.52 168.849 101.179 168.529 100.752C168.209 100.315 168.038 99.8293 168.017 99.296H169.905C169.937 99.6693 170.113 99.984 170.433 100.24C170.764 100.485 171.174 100.608 171.665 100.608C172.177 100.608 172.572 100.512 172.849 100.32C173.137 100.117 173.281 99.8613 173.281 99.552C173.281 99.2213 173.121 98.976 172.801 98.816C172.492 98.656 171.996 98.48 171.313 98.288C170.652 98.1067 170.113 97.9307 169.697 97.76C169.281 97.5893 168.918 97.328 168.609 96.976C168.31 96.624 168.161 96.16 168.161 95.584C168.161 95.1147 168.3 94.688 168.577 94.304C168.854 93.9093 169.249 93.6 169.761 93.376C170.284 93.152 170.881 93.04 171.553 93.04C172.556 93.04 173.361 93.296 173.969 93.808C174.588 94.3093 174.918 94.9973 174.961 95.872H173.137C173.105 95.4773 172.945 95.1627 172.657 94.928C172.369 94.6933 171.98 94.576 171.489 94.576C171.009 94.576 170.641 94.6667 170.385 94.848C170.129 95.0293 170.001 95.2693 170.001 95.568C170.001 95.8027 170.086 96 170.257 96.16C170.428 96.32 170.636 96.448 170.881 96.544C171.126 96.6293 171.489 96.7413 171.969 96.88C172.609 97.0507 173.132 97.2267 173.537 97.408C173.953 97.5787 174.31 97.8347 174.609 98.176C174.908 98.5173 175.062 98.9707 175.073 99.536C175.073 100.037 174.934 100.485 174.657 100.88C174.38 101.275 173.985 101.584 173.473 101.808C172.972 102.032 172.38 102.144 171.697 102.144Z" fill="#6F6F6F"/>
<path d="M68 16V24C68 29.658 68 32.486 69.758 34.244C70.192 34.678 70.692 35.004 71.284 35.252C71.2706 35.1628 71.258 35.0734 71.246 34.984C71 33.148 71 30.858 71 28.198V11.804C71 9.144 71 6.852 71.246 5.018L71.286 4.75C70.7145 4.98068 70.195 5.32341 69.758 5.758C68 7.516 68 10.344 68 16ZM108 16V24C108 29.658 108 32.486 106.242 34.244C105.808 34.678 105.308 35.004 104.716 35.252L104.754 34.984C105 33.148 105 30.858 105 28.198V11.804C105 9.144 105 6.852 104.754 5.018C104.741 4.92856 104.728 4.83923 104.714 4.75C105.308 4.996 105.808 5.324 106.242 5.758C108 7.516 108 10.344 108 16Z" fill="#5384EA"/>
<path fill-rule="evenodd" clip-rule="evenodd" d="M75.758 1.758C74 3.514 74 6.344 74 12V28C74 33.656 74 36.486 75.758 38.242C77.514 40 80.344 40 86 40H90C95.656 40 98.486 40 100.242 38.242C102 36.486 102 33.656 102 28V12C102 6.344 102 3.514 100.242 1.758C98.486 -1.19209e-07 95.656 0 90 0H86C80.344 0 77.514 -1.19209e-07 75.758 1.758ZM80.5 30C80.5 29.6022 80.658 29.2206 80.9393 28.9393C81.2206 28.658 81.6022 28.5 82 28.5H88C88.3978 28.5 88.7794 28.658 89.0607 28.9393C89.342 29.2206 89.5 29.6022 89.5 30C89.5 30.3978 89.342 30.7794 89.0607 31.0607C88.7794 31.342 88.3978 31.5 88 31.5H82C81.6022 31.5 81.2206 31.342 80.9393 31.0607C80.658 30.7794 80.5 30.3978 80.5 30ZM82 20.5C81.6022 20.5 81.2206 20.658 80.9393 20.9393C80.658 21.2206 80.5 21.6022 80.5 22C80.5 22.3978 80.658 22.7794 80.9393 23.0607C81.2206 23.342 81.6022 23.5 82 23.5H94C94.3978 23.5 94.7794 23.342 95.0607 23.0607C95.342 22.7794 95.5 22.3978 95.5 22C95.5 21.6022 95.342 21.2206 95.0607 20.9393C94.7794 20.658 94.3978 20.5 94 20.5H82ZM80.5 14C80.5 13.6022 80.658 13.2206 80.9393 12.9393C81.2206 12.658 81.6022 12.5 82 12.5H94C94.3978 12.5 94.7794 12.658 95.0607 12.9393C95.342 13.2206 95.5 13.6022 95.5 14C95.5 14.3978 95.342 14.7794 95.0607 15.0607C94.7794 15.342 94.3978 15.5 94 15.5H82C81.6022 15.5 81.2206 15.342 80.9393 15.0607C80.658 14.7794 80.5 14.3978 80.5 14Z" fill="#5384EA"/>
</svg>
